<?xml version="1.0" encoding="UTF-8" standalone="no"?>
<svg
   xmlns="http://www.w3.org/2000/svg"
   height="89.153427"
   version="1.1"
   viewBox="0 0 547.5979 89.153428"
   width="547.5979"
   xml:space="preserve"><defs
     id="defs3" />
     <path
     d="M 111.04324,0.02307245 C 87.559265,-0.69513055 68.549465,15.497167 50.537387,28.310179 37.734329,37.669013 21.54376,46.150267 5.2453716,41.684396 c -9.734613,-3.416195 -3.613033,2.486405 0.0086,6.919676 21.0360354,25.425538 54.1295634,39.455164 86.7755634,40.497122 24.706145,0.901425 50.832755,-9.872163 63.765615,-31.73828 1.24598,-0.881887 2.79539,-7.402264 3.4375,-3.814453 4.99326,16.26526 23.07199,25.448782 39.37637,23.233563 110.62837,-1.522852 222.72886,3.323607 331.56932,-20.363839 6.08888,-1.583375 16.5706,-1.96579 17.41953,-10.160739 -0.45786,-8.0096 -9.38694,-11.61115 -15.60546,-14.683595 C 501.47772,18.733608 467.71623,19.600836 435.33224,16.419554 353.46984,10.753442 271.35745,9.0508145 189.33226,8.8433845 175.35829,10.358246 162.03862,20.00282 158.48656,33.984008 149.63966,18.215241 136.0367,2.1514055 116.83422,0.29065045 c -1.92184,-0.216084 -3.85754,-0.302702 -5.79102,-0.267578 z"
     style="color:#000000;fill:#000000;stroke-width:0.1986506" />
     <path
     d="M 112.15013,6.5021865 C 100.11427,5.9930965 88.767065,10.362103 78.851028,16.571617 58.828752,28.414729 41.868789,47.335407 18.475675,49.277448 l -3.277241,0.277503 2.360394,2.31914 c 21.721702,21.300788 52.879023,32.155434 82.730812,30.525441 22.1108,-0.883613 44.07065,-13.327634 53.3722,-34.113171 2.03031,-2.323949 2.20007,-5.071115 1.42404,-7.294391 -0.76792,-2.200026 -2.21055,-4.079128 -3.35526,-5.827583 l -0.02,-0.01979 C 147.59418,28.098708 142.28003,20.890577 135.69554,15.441779 129.11365,9.9951325 121.22282,6.2939685 112.15013,6.5021865 Z"
     style="color:#000000;fill:#ffffff;stroke-width:0.29797593" />
     <path
     id="0"
     d="m 112.07223,9.5349085 0.0589,0 0.039,0 c 8.26071,-0.200062 15.45217,3.1143665 21.65319,8.2458325 6.20102,5.131467 11.3546,12.083895 15.35231,18.929739 l 0.02,0.01979 0.02,0.03968 c 1.22734,1.882305 2.54152,3.684012 3.08217,5.232933 0.54064,1.548921 0.56132,2.636661 -0.85835,4.261669 l -0.15611,0.178394 -0.0979,0.218035 c -8.645,19.808293 -29.78509,31.863014 -51.0323,32.705827 l -0.0195,0 C 72.151876,80.894691 43.255017,70.579925 22.318629,51.378549 45.151741,47.767413 61.930735,30.070225 80.372603,19.168261 l 0.01948,0 0.01948,-0.01979 C 90.010395,13.137599 100.80222,9.0432865 112.0721,9.5349085 Z"
     style="color:#000000;fill:#000000;stroke-width:0.29797593" />
     <path
     d="m 194.4908,15.243561 0.0389,0.01979 c -1.89078,-0.06201 -4.08621,-0.09702 -6.06679,0.356789 -12.72197,1.533399 -23.76089,12.44105 -23.91605,25.827695 -1.42075,13.301433 8.3773,25.650783 21.08748,28.226121 l 0.02,0.01979 0.0389,0 c 10.75765,1.786715 21.64161,0.05095 32.03113,0.535183 l 1.56059,0.05947 0,-54.549359 -1.48256,-0.01979 c -7.75595,-0.107576 -15.52093,-0.359904 -23.31132,-0.475721 z"
     style="color:#000000;fill:#ffffff;stroke-width:0.29797593" />
     <path
     id="1"
     d="m 194.43187,18.276285 0.02,0 c 7.26991,0.108073 14.54819,0.319197 21.84827,0.43608 l 0,48.464093 c -10.25536,-0.285799 -20.4973,1.118335 -30.11947,-0.475724 -11.19476,-2.292576 -19.97896,-13.374073 -18.70758,-24.975361 l 0.02,-0.07926 0,-0.07926 c 0.0819,-11.761774 10.05158,-21.639873 21.3801,-22.973367 l 0.0779,-0.01979 0.0779,-0.01979 c 1.443,-0.343707 3.53028,-0.338947 5.40355,-0.277507 z"
     style="color:#000000;fill:#000000;stroke-width:0.29797593" />
     <path
     d="m 224.25906,15.838213 0,54.291678 1.52158,-0.01979 c 16.0287,-0.247213 32.05003,-0.519463 48.06619,-0.574834 l 1.48257,0 0,-52.725761 -1.46306,-0.01979 c -14.54157,-0.290873 -29.08092,-0.653872 -43.63802,-0.872151 l -0.02,0 -5.94975,-0.07926 z"
     style="color:#000000;fill:#ffffff;stroke-width:0.29797593" />
     <path
     id="2"
     d="m 227.24369,18.890757 2.92611,0.03968 c 14.05069,0.210688 28.11246,0.566796 42.17496,0.85233 l 0,46.739603 c -15.04011,0.06424 -30.0757,0.302219 -45.10107,0.535183 l 0,-48.166768 z"
     style="color:#000000;fill:#000000;stroke-width:0.29797593" />
     <path
     d="m 280.32329,16.888764 0,52.567188 1.50206,0 c 16.74768,-0.06038 33.46955,-0.390736 50.1925,-0.594654 l 1.48256,-0.01979 0,-50.941807 -1.44354,-0.03968 c -15.15973,-0.486073 -30.32067,-0.603139 -45.45221,-0.85232 l -0.02,0 -6.26187,-0.118933 z"
     style="color:#000000;fill:#ffffff;stroke-width:0.29797593" />
     <path
     id="3"
     d="m 283.30792,19.980952 3.23822,0.05947 c 14.6742,0.241773 29.33071,0.365871 43.96964,0.812689 l 0,44.995293 c -15.74179,0.198702 -31.48533,0.483394 -47.20786,0.555003 l 0,-46.422456 z"
     style="color:#000000;fill:#000000;stroke-width:0.29797593" />
     <path
     d="m 338.47479,17.99878 0,50.763413 1.52158,-0.01979 c 18.17902,-0.295957 36.32167,-1.300191 54.46462,-2.220033 l 1.42404,-0.05947 0,-44.896184 -1.40454,-0.07926 c -17.59965,-1.01021 -35.19816,-2.620844 -52.86501,-3.369743 l -0.58518,-0.01979 -2.55547,-0.09915 z"
     style="color:#000000;fill:#ffffff;stroke-width:0.29797593" />
     <path
     id="4"
     d="m 341.45942,21.130611 0.039,0 c 17.10327,0.725015 34.21028,2.253555 51.40195,3.270583 l 0,39.167709 c -17.16597,0.873266 -34.31633,1.766359 -51.44098,2.08128 l 0,-44.519572 z"
     style="color:#000000;fill:#000000;stroke-width:0.29797593" />
     <path
     d="m 400.85941,21.864015 0,44.301533 1.5801,-0.09915 c 19.70516,-1.099604 39.37234,-2.679904 59.00983,-5.094182 l 1.30699,-0.158574 0,-34.965505 -1.36551,-0.118932 c -15.0803,-1.240157 -30.16631,-2.156443 -45.27663,-3.012853 l -15.25478,-0.852334 z"
     style="color:#000000;fill:#ffffff;stroke-width:0.29797593" />
     <path
     id="5"
     d="m 403.84404,25.075132 12.11409,0.673936 c 14.64678,0.830134 29.22959,1.713771 43.81357,2.893971 l 0,29.455067 c -18.59758,2.251265 -37.23805,3.748962 -55.92766,4.81668 l 0,-37.839654 z"
     style="color:#000000;fill:#000000;stroke-width:0.29797593" />
     <path
     d="m 467.75022,26.165327 0,33.855489 1.67764,-0.218036 c 22.77448,-2.973512 45.68023,-6.285584 68.11979,-11.774101 0.5758,-0.08342 1.0829,-0.182941 1.54108,-0.396439 0.50459,-0.235095 1.04292,-0.651619 1.28749,-1.328055 0.2446,-0.676443 0.0669,-1.362291 -0.15611,-1.803776 -0.22253,-0.441489 -0.48491,-0.755856 -0.78035,-1.050551 -1.18148,-1.17877 -2.91405,-2.141922 -3.58925,-2.596639 l -0.0589,-0.03968 -0.0779,-0.03968 C 515.54532,30.003269 492.33151,27.078945 470.11063,26.343722 l -0.0779,0 -2.28237,-0.178394 z"
     style="color:#000000;fill:#ffffff;stroke-width:0.29797593" />
     <path
     id="6"
     d="m 470.73486,29.43591 c 21.78943,0.768745 44.24572,3.694312 63.55506,13.994131 0.013,0.0068 0.026,0.01299 0.0389,0.01979 0.71482,0.475701 1.63319,1.104677 2.36039,1.665024 -21.65546,5.286566 -43.8195,8.471583 -65.95446,11.377664 l 0,-27.05664 z"
     style="color:#000000;fill:#000000;stroke-width:0.29797593" />
     </svg>
